<?xml version="1.0" standalone="no"?>
<!DOCTYPE svg PUBLIC "-//W3C//DTD SVG 20010904//EN"
 "http://www.w3.org/TR/2001/REC-SVG-20010904/DTD/svg10.dtd">
<svg version="1.0" xmlns="http://www.w3.org/2000/svg"
 width="200.000000pt" height="200.000000pt" viewBox="0 0 200.000000 200.000000"
 preserveAspectRatio="xMidYMid meet">

<g transform="translate(0.000000,200.000000) scale(0.100000,-0.100000)"
fill="#000000" stroke="none">
<path d="M0 1000 l0 -1000 1000 0 1000 0 0 1000 0 1000 -1000 0 -1000 0 0
-1000z m733 607 l-2 -37 41 0 c46 0 88 -30 88 -61 0 -16 -11 -19 -91 -21 -96
-3 -120 -15 -106 -52 5 -13 23 -16 102 -16 l95 0 0 -25 c0 -14 -11 -37 -25
-50 -22 -23 -31 -25 -123 -25 -94 0 -101 1 -126 26 -23 24 -26 34 -26 99 0 96
20 125 87 125 l45 0 -7 31 c-8 33 6 52 35 46 11 -2 14 -14 13 -40z m-4 -141
c8 -10 8 -16 -2 -24 -17 -14 -42 2 -34 22 8 20 21 20 36 2z m100 -22 c-12 -15
-39 -8 -39 11 0 18 22 25 38 12 9 -7 9 -13 1 -23z m42 -163 c14 -11 34 -50 49
-97 26 -76 28 -79 68 -90 l41 -12 17 46 c10 26 25 67 35 92 l17 45 173 3 c95
1 179 0 186 -2 9 -4 6 -20 -11 -63 -13 -32 -39 -102 -57 -155 l-33 -98 -378 0
c-365 0 -379 1 -398 20 -18 18 -20 33 -20 153 0 183 -5 177 159 177 111 0 132
-3 152 -19z m-601 -501 c0 -27 3 -30 30 -30 27 0 30 3 30 30 0 25 4 30 25 30
l25 0 -2 -97 -2 -98 -6 95 -6 95 -2 -92 c-2 -75 -5 -93 -17 -93 -10 0 -15 11
-15 35 0 32 -2 35 -30 35 -28 0 -30 -3 -30 -35 0 -28 -4 -35 -20 -35 -19 0
-20 7 -20 95 0 88 1 95 20 95 16 0 20 -7 20 -30z m270 17 c9 -7 24 -23 33 -37
9 -13 17 -19 17 -12 0 7 11 24 25 37 55 56 155 16 155 -62 0 -97 -120 -134
-169 -52 l-18 29 -13 -25 c-44 -83 -170 -51 -170 44 0 39 19 67 36 53 5 -4 6
-3 2 2 -24 29 68 50 102 23z m348 4 c8 -5 12 -17 10 -27 -3 -15 -11 -18 -38
-17 l-35 3 33 -17 c79 -41 38 -141 -47 -112 -50 17 -35 56 19 51 22 -2 23 -1
7 8 -9 6 -15 15 -12 21 3 5 -1 6 -9 3 -10 -4 -20 3 -27 20 -17 37 10 76 54 76
17 0 38 -4 45 -9z m82 -21 c0 -27 3 -30 30 -30 27 0 30 3 32 33 1 27 2 26 8
-13 l7 -45 1 43 c2 30 6 42 17 42 12 0 15 -17 15 -93 0 -92 0 -93 -25 -95 -22
-2 -25 2 -25 33 0 32 -2 35 -30 35 -28 0 -30 -3 -30 -36 0 -31 -3 -35 -22 -32
-22 3 -23 8 -26 96 l-3 92 26 0 c21 0 25 -5 25 -30z m250 15 c7 -9 14 -42 16
-75 3 -72 -14 -91 -86 -98 l-50 -5 0 97 0 96 54 0 c36 0 58 -5 66 -15z m159
-37 c13 -29 30 -65 37 -80 8 -14 14 -33 14 -42 0 -23 -37 -20 -50 3 -11 21
-43 19 -72 -6 -20 -18 -54 -12 -50 8 8 34 78 169 88 169 6 0 21 -24 33 -52z
m215 -28 c20 -43 36 -86 36 -95 0 -20 -39 -20 -46 0 -4 8 -18 15 -34 15 -15 0
-33 -7 -40 -15 -15 -18 -50 -20 -50 -2 0 23 74 177 86 177 6 0 28 -36 48 -80z
m206 71 c-1 -3 -14 -31 -30 -61 l-30 -55 25 -3 c20 -3 25 -9 25 -33 l0 -29
-65 0 c-45 0 -65 4 -65 13 0 6 14 36 30 66 17 30 30 56 30 58 0 1 -11 3 -25 3
-20 0 -25 5 -25 26 0 24 1 25 65 23 36 -1 65 -5 65 -8z"/>
<path d="M745 1380 c3 -5 12 -10 20 -10 8 0 17 5 20 10 4 6 -5 10 -20 10 -15
0 -24 -4 -20 -10z"/>
<path d="M1110 1188 c-7 -23 -23 -72 -37 -110 l-25 -68 -65 0 c-54 0 -68 4
-82 21 -11 14 -47 29 -101 43 l-85 23 -3 36 c-5 55 -24 45 -20 -10 l3 -48 90
-21 c71 -16 92 -25 100 -42 10 -22 14 -22 225 -22 l215 0 11 33 c7 17 22 59
34 92 12 33 26 72 30 88 l9 27 -144 0 -144 0 -11 -42z m170 -46 c0 -20 -28
-44 -47 -40 -31 5 -12 48 22 48 14 0 25 -4 25 -8z"/>
<path d="M248 775 c2 -14 6 -25 8 -25 2 0 4 11 4 25 0 14 -4 25 -9 25 -4 0 -6
-11 -3 -25z"/>
<path d="M252 665 c0 -16 2 -22 5 -12 2 9 2 23 0 30 -3 6 -5 -1 -5 -18z"/>
<path d="M461 746 c-8 -10 -11 -26 -7 -41 6 -22 11 -26 39 -23 29 3 32 6 32
38 0 30 -4 35 -26 38 -14 2 -31 -4 -38 -12z"/>
<path d="M646 744 c-19 -19 -20 -25 -3 -48 9 -12 23 -17 42 -14 25 2 31 8 33
32 5 44 -40 63 -72 30z"/>
<path d="M561 734 c0 -11 3 -14 6 -6 3 7 2 16 -1 19 -3 4 -6 -2 -5 -13z"/>
<path d="M752 720 c0 -14 2 -19 5 -12 2 6 2 18 0 25 -3 6 -5 1 -5 -13z"/>
<path d="M688 643 c7 -3 16 -2 19 1 4 3 -2 6 -13 5 -11 0 -14 -3 -6 -6z"/>
<path d="M1043 675 c0 -22 2 -30 4 -17 2 12 2 30 0 40 -3 9 -5 -1 -4 -23z"/>
<path d="M1150 750 c0 -5 4 -10 9 -10 6 0 13 5 16 10 3 6 -1 10 -9 10 -9 0
-16 -4 -16 -10z"/>
<path d="M1153 683 c9 -2 23 -2 30 0 6 3 -1 5 -18 5 -16 0 -22 -2 -12 -5z"/>
<path d="M1335 700 c-3 -5 -1 -10 4 -10 6 0 11 5 11 10 0 6 -2 10 -4 10 -3 0
-8 -4 -11 -10z"/>
<path d="M1706 703 c-6 -14 -5 -15 5 -6 7 7 10 15 7 18 -3 3 -9 -2 -12 -12z"/>
</g>
</svg>
