<?xml version="1.0" standalone="no"?>
<!DOCTYPE svg PUBLIC "-//W3C//DTD SVG 20010904//EN"
 "http://www.w3.org/TR/2001/REC-SVG-20010904/DTD/svg10.dtd">
<svg version="1.0" xmlns="http://www.w3.org/2000/svg"
 width="660.000000pt" height="626.000000pt" viewBox="0 0 660.000000 626.000000"
 preserveAspectRatio="xMidYMid meet">

<g transform="translate(0.000000,626.000000) scale(0.100000,-0.100000)"
fill="#000000" stroke="none">
<path d="M5078 4363 c7 -3 16 -2 19 1 4 3 -2 6 -13 5 -11 0 -14 -3 -6 -6z"/>
<path d="M5077 4290 c-3 -11 -3 -20 -1 -20 2 0 8 9 14 20 6 11 7 20 2 20 -6 0
-12 -9 -15 -20z"/>
<path d="M5070 4201 c0 -10 29 -36 34 -30 1 2 -6 12 -16 22 -10 9 -18 13 -18
8z"/>
<path d="M5095 4039 c-4 -6 -5 -12 -2 -15 2 -3 7 2 10 11 7 17 1 20 -8 4z"/>
<path d="M5080 3976 c0 -19 3 -37 8 -40 4 -2 6 13 4 35 -5 48 -12 51 -12 5z"/>
<path d="M4696 3963 c-6 -14 -5 -15 5 -6 7 7 10 15 7 18 -3 3 -9 -2 -12 -12z"/>
<path d="M5090 3666 c0 -3 9 -10 20 -16 11 -6 20 -8 20 -6 0 3 -9 10 -20 16
-11 6 -20 8 -20 6z"/>
<path d="M5040 3525 c-6 -8 -14 -34 -16 -57 l-3 -43 9 44 c5 24 15 49 21 57 6
8 9 14 6 14 -2 0 -10 -7 -17 -15z"/>
<path d="M5030 3416 c0 -3 9 -10 20 -16 11 -6 20 -8 20 -6 0 3 -9 10 -20 16
-11 6 -20 8 -20 6z"/>
<path d="M4941 3283 c0 -6 -4 -20 -7 -30 -5 -14 -4 -15 5 -7 7 7 11 20 8 30
-3 11 -5 14 -6 7z"/>
<path d="M4930 3225 c0 -5 5 -17 10 -25 5 -8 10 -10 10 -5 0 6 -5 17 -10 25
-5 8 -10 11 -10 5z"/>
<path d="M3391 2644 c0 -11 3 -14 6 -6 3 7 2 16 -1 19 -3 4 -6 -2 -5 -13z"/>
<path d="M3801 1727 c-29 -15 -38 -30 -46 -79 -4 -29 -11 -38 -25 -38 -15 0
-20 -7 -20 -25 0 -18 5 -25 20 -25 18 0 20 -8 22 -112 l3 -113 32 -3 32 -3 3
113 3 113 28 3 c21 3 27 9 27 28 0 20 -5 24 -30 24 -23 0 -30 5 -30 19 0 37
12 51 41 51 24 0 29 4 29 24 0 36 -43 47 -89 23z"/>
<path d="M4620 1529 l0 -200 33 3 32 3 5 94 c5 86 7 96 30 113 55 40 80 0 80
-128 l0 -84 30 0 30 0 0 114 c0 99 -3 117 -21 140 -16 21 -29 26 -63 26 -23 0
-52 -7 -64 -16 l-22 -15 0 75 0 76 -35 0 -35 0 0 -201z"/>
<path d="M1470 1691 c0 -20 6 -32 19 -36 31 -9 51 5 51 36 0 26 -3 29 -35 29
-32 0 -35 -2 -35 -29z"/>
<path d="M2630 1691 c0 -20 6 -32 19 -36 31 -9 51 5 51 36 0 26 -3 29 -35 29
-32 0 -35 -2 -35 -29z"/>
<path d="M763 1694 c-10 -27 3 -278 16 -302 34 -63 164 -85 232 -39 49 33 60
76 57 226 l-3 126 -32 3 -31 3 -4 -141 -3 -142 -29 -25 c-34 -29 -77 -26 -111
8 -18 17 -20 35 -23 159 l-4 140 -29 0 c-18 0 -32 -6 -36 -16z"/>
<path d="M4040 1680 c0 -29 1 -30 50 -30 l49 0 3 -157 3 -158 32 -3 32 -3 3
158 3 158 53 3 c50 3 52 4 52 33 l0 29 -140 0 -140 0 0 -30z"/>
<path d="M2797 1673 c-4 -3 -7 -19 -7 -35 0 -21 -5 -28 -20 -28 -15 0 -20 -7
-20 -25 0 -18 5 -25 20 -25 18 0 20 -7 20 -79 0 -129 19 -157 101 -149 29 3
34 7 37 31 3 25 1 28 -18 22 -38 -12 -50 10 -50 96 l0 79 35 0 c31 0 35 3 35
25 0 22 -4 25 -35 25 -33 0 -35 2 -35 35 0 32 -3 35 -28 35 -16 0 -32 -3 -35
-7z"/>
<path d="M1150 1469 l0 -140 33 3 32 3 5 94 c5 86 7 96 30 113 55 40 80 0 80
-128 l0 -84 30 0 30 0 0 114 c0 99 -3 117 -21 140 -26 33 -93 37 -132 6 -25
-20 -25 -20 -30 0 -3 14 -14 20 -31 20 l-26 0 0 -141z"/>
<path d="M1470 1470 l0 -141 33 3 32 3 0 135 0 135 -32 3 -33 3 0 -141z"/>
<path d="M1591 1593 c0 -10 19 -72 42 -138 l42 -120 41 -3 c25 -2 45 2 51 10
13 17 83 227 83 251 0 12 -8 17 -30 17 -29 0 -30 -2 -62 -106 -36 -117 -32
-118 -74 19 l-26 87 -34 0 c-26 0 -34 -4 -33 -17z"/>
<path d="M1914 1576 c-32 -32 -34 -38 -34 -100 0 -111 32 -146 132 -146 76 0
98 8 98 35 0 22 -3 22 -62 18 -71 -5 -96 6 -100 47 -3 25 -2 25 85 28 l87 3 0
45 c0 37 -6 51 -29 75 -26 25 -37 29 -86 29 -51 0 -60 -3 -91 -34z m126 -26
c37 -37 26 -50 -40 -50 -52 0 -59 2 -53 18 18 52 59 66 93 32z"/>
<path d="M2190 1469 l0 -140 33 3 32 3 5 91 c6 101 17 124 61 124 26 0 29 4
29 30 0 27 -3 30 -30 30 -17 0 -39 -9 -50 -20 l-20 -20 0 20 c0 16 -7 20 -30
20 l-30 0 0 -141z"/>
<path d="M2402 1590 c-18 -17 -22 -30 -20 -63 3 -40 6 -43 60 -72 63 -33 74
-58 35 -76 -18 -8 -33 -7 -60 5 l-37 15 0 -28 c0 -33 14 -41 75 -41 58 0 91
16 106 52 20 49 3 79 -63 111 -59 28 -70 45 -43 67 15 12 41 10 78 -5 16 -7
18 -4 15 21 -3 28 -5 29 -63 32 -50 2 -64 -1 -83 -18z"/>
<path d="M2630 1469 l0 -140 33 3 32 3 3 138 3 137 -36 0 -35 0 0 -141z"/>
<path d="M2960 1601 c0 -4 23 -69 50 -144 42 -113 49 -139 40 -162 -15 -39
-13 -41 24 -41 l35 0 55 161 c31 88 56 168 56 178 0 12 -8 17 -29 17 -29 0
-31 -4 -57 -87 -16 -49 -31 -91 -34 -95 -3 -4 -21 35 -39 87 -33 95 -33 95
-67 95 -19 0 -34 -4 -34 -9z"/>
<path d="M3449 1582 c-59 -53 -59 -172 2 -226 29 -26 37 -28 95 -24 50 3 69 9
89 28 54 51 57 169 5 222 -25 25 -35 28 -94 28 -58 0 -69 -3 -97 -28z m127
-30 c61 -40 34 -172 -35 -172 -42 0 -65 32 -65 90 0 34 6 56 19 70 18 20 60
26 81 12z"/>
<path d="M4344 1576 c-32 -32 -34 -38 -34 -100 0 -111 32 -146 132 -146 77 0
98 8 98 36 0 22 -3 23 -49 17 -27 -3 -60 -3 -73 0 -25 7 -53 51 -43 68 4 5 44
9 91 9 l84 0 0 46 c0 37 -5 51 -29 75 -26 25 -37 29 -86 29 -51 0 -60 -3 -91
-34z m126 -26 c37 -37 26 -50 -40 -50 -52 0 -59 2 -53 18 18 52 59 66 93 32z"/>
<path d="M4940 1469 l0 -140 33 3 32 3 5 91 c6 101 17 124 61 124 26 0 29 4
29 30 0 27 -3 30 -30 30 -17 0 -39 -9 -50 -20 l-20 -20 0 20 c0 16 -7 20 -30
20 l-30 0 0 -141z"/>
<path d="M5163 1598 c-14 -7 -23 -20 -23 -35 0 -12 1 -23 3 -23 1 0 23 7 49
14 56 18 86 11 94 -20 9 -35 -3 -44 -56 -44 -66 0 -104 -31 -104 -85 0 -27 6
-43 23 -56 29 -23 98 -25 129 -3 20 14 22 14 22 0 0 -11 10 -16 30 -16 l30 0
0 99 c0 106 -12 156 -40 171 -25 13 -129 12 -157 -2z m127 -173 c0 -35 -42
-62 -75 -47 -50 23 -24 72 37 72 34 0 38 -3 38 -25z"/>
<path d="M5440 1469 l0 -140 33 3 32 3 5 94 c5 86 7 96 30 113 55 40 80 0 80
-128 0 -81 1 -84 23 -84 23 0 24 3 30 113 6 99 5 115 -12 137 -25 35 -93 40
-133 10 -28 -21 -28 -21 -28 0 0 16 -7 20 -30 20 l-30 0 0 -141z"/>
</g>
</svg>
